<mxfile host="app.diagrams.net" agent="Mozilla/5.0 (Windows NT 10.0; Win64; x64) AppleWebKit/537.36 (KHTML, like Gecko) Chrome/136.0.0.0 Safari/537.36" version="27.0.3">
  <diagram name="‫صفحه - 1‬" id="ZE83JCWvptQ--PR7GEOe">
    <mxGraphModel dx="1141" dy="628" grid="1" gridSize="10" guides="1" tooltips="1" connect="1" arrows="1" fold="1" page="1" pageScale="1" pageWidth="827" pageHeight="1169" math="0" shadow="0">
      <root>
        <mxCell id="0" />
        <mxCell id="1" parent="0" />
        <mxCell id="XFQT50zC6AlC2kEd5-D_-104" style="edgeStyle=orthogonalEdgeStyle;rounded=0;orthogonalLoop=1;jettySize=auto;html=1;entryX=0.5;entryY=0;entryDx=0;entryDy=0;" edge="1" parent="1" source="XFQT50zC6AlC2kEd5-D_-99" target="XFQT50zC6AlC2kEd5-D_-101">
          <mxGeometry relative="1" as="geometry" />
        </mxCell>
        <mxCell id="XFQT50zC6AlC2kEd5-D_-99" value="&lt;b&gt;پردازش سفارش&amp;nbsp;&lt;/b&gt;&lt;div&gt;&lt;br&gt;&lt;/div&gt;" style="html=1;whiteSpace=wrap;" vertex="1" parent="1">
          <mxGeometry x="370" y="120" width="110" height="40" as="geometry" />
        </mxCell>
        <mxCell id="XFQT50zC6AlC2kEd5-D_-103" style="edgeStyle=orthogonalEdgeStyle;rounded=0;orthogonalLoop=1;jettySize=auto;html=1;entryX=0;entryY=0.5;entryDx=0;entryDy=0;" edge="1" parent="1" source="XFQT50zC6AlC2kEd5-D_-100" target="XFQT50zC6AlC2kEd5-D_-99">
          <mxGeometry relative="1" as="geometry" />
        </mxCell>
        <mxCell id="XFQT50zC6AlC2kEd5-D_-100" value="سرویس پرداخت&amp;nbsp;" style="html=1;whiteSpace=wrap;" vertex="1" parent="1">
          <mxGeometry x="150" y="320" width="110" height="50" as="geometry" />
        </mxCell>
        <mxCell id="XFQT50zC6AlC2kEd5-D_-101" value="برسی موجودی&amp;nbsp;&lt;span style=&quot;color: rgba(0, 0, 0, 0); font-family: monospace; font-size: 0px; text-align: start; text-wrap-mode: nowrap;&quot;&gt;%3CmxGraphModel%3E%3Croot%3E%3CmxCell%20id%3D%220%22%2F%3E%3CmxCell%20id%3D%221%22%20parent%3D%220%22%2F%3E%3CmxCell%20id%3D%222%22%20value%3D%22%D8%B3%D8%B1%D9%88%DB%8C%D8%B3%20%D9%BE%D8%B1%D8%AF%D8%A7%D8%AE%D8%AA%26amp%3Bnbsp%3B%22%20style%3D%22html%3D1%3BwhiteSpace%3Dwrap%3B%22%20vertex%3D%221%22%20parent%3D%221%22%3E%3CmxGeometry%20x%3D%22150%22%20y%3D%22320%22%20width%3D%22110%22%20height%3D%2250%22%20as%3D%22geometry%22%2F%3E%3C%2FmxCell%3E%3C%2Froot%3E%3C%2FmxGraphModel%3E&lt;/span&gt;&lt;span style=&quot;color: rgba(0, 0, 0, 0); font-family: monospace; font-size: 0px; text-align: start; text-wrap-mode: nowrap;&quot;&gt;%3CmxGraphModel%3E%3Croot%3E%3CmxCell%20id%3D%220%22%2F%3E%3CmxCell%20id%3D%221%22%20parent%3D%220%22%2F%3E%3CmxCell%20id%3D%222%22%20value%3D%22%D8%B3%D8%B1%D9%88%DB%8C%D8%B3%20%D9%BE%D8%B1%D8%AF%D8%A7%D8%AE%D8%AA%26amp%3Bnbsp%3B%22%20style%3D%22html%3D1%3BwhiteSpace%3Dwrap%3B%22%20vertex%3D%221%22%20parent%3D%221%22%3E%3CmxGeometry%20x%3D%22150%22%20y%3D%22320%22%20width%3D%22110%22%20height%3D%2250%22%20as%3D%22geometry%22%2F%3E%3C%2FmxCell%3E%3C%2Froot%3E%3C%2FmxGraphModel%3E&lt;/span&gt;" style="html=1;whiteSpace=wrap;" vertex="1" parent="1">
          <mxGeometry x="370" y="320" width="110" height="50" as="geometry" />
        </mxCell>
        <mxCell id="XFQT50zC6AlC2kEd5-D_-102" value="سرویس پرداخت&amp;nbsp;" style="html=1;whiteSpace=wrap;" vertex="1" parent="1">
          <mxGeometry x="630" y="320" width="110" height="50" as="geometry" />
        </mxCell>
        <mxCell id="XFQT50zC6AlC2kEd5-D_-105" style="edgeStyle=orthogonalEdgeStyle;rounded=0;orthogonalLoop=1;jettySize=auto;html=1;entryX=0.562;entryY=-0.064;entryDx=0;entryDy=0;entryPerimeter=0;" edge="1" parent="1" source="XFQT50zC6AlC2kEd5-D_-99" target="XFQT50zC6AlC2kEd5-D_-102">
          <mxGeometry relative="1" as="geometry" />
        </mxCell>
        <mxCell id="XFQT50zC6AlC2kEd5-D_-106" value="ارسال محصول&amp;nbsp;" style="text;align=center;fontStyle=1;verticalAlign=middle;spacingLeft=3;spacingRight=3;strokeColor=none;rotatable=0;points=[[0,0.5],[1,0.5]];portConstraint=eastwest;html=1;" vertex="1" parent="1">
          <mxGeometry x="700" y="230" width="80" height="26" as="geometry" />
        </mxCell>
        <mxCell id="XFQT50zC6AlC2kEd5-D_-107" value="بررسی انبار&amp;nbsp;" style="text;align=center;fontStyle=1;verticalAlign=middle;spacingLeft=3;spacingRight=3;strokeColor=none;rotatable=0;points=[[0,0.5],[1,0.5]];portConstraint=eastwest;html=1;" vertex="1" parent="1">
          <mxGeometry x="460" y="220" width="80" height="26" as="geometry" />
        </mxCell>
        <mxCell id="XFQT50zC6AlC2kEd5-D_-108" value="وابستگی&amp;nbsp;" style="text;align=center;fontStyle=1;verticalAlign=middle;spacingLeft=3;spacingRight=3;strokeColor=none;rotatable=0;points=[[0,0.5],[1,0.5]];portConstraint=eastwest;html=1;" vertex="1" parent="1">
          <mxGeometry x="320" y="220" width="80" height="26" as="geometry" />
        </mxCell>
      </root>
    </mxGraphModel>
  </diagram>
</mxfile>
